{
	"asset":{
		"generator":"Khronos glTF Blender I/O v3.6.27",
		"version":"2.0"
	},
	"scene":0,
	"scenes":[
		{
			"name":"Scene",
			"nodes":[
				0,
				1,
				2,
				3,
				4,
				5,
				6,
				7,
				8,
				9,
				10,
				11,
				12
			]
		}
	],
	"nodes":[
		{
			"mesh":0,
			"name":"balance",
			"scale":[
				3.658799409866333,
				1.956199288368225,
				1.419113039970398
			]
		},
		{
			"mesh":1,
			"name":"plate",
			"scale":[
				0.7920758128166199,
				0.7920758128166199,
				0.7920758128166199
			],
			"translation":[
				1.275852084159851,
				1.4851465225219727,
				0
			]
		},
		{
			"mesh":2,
			"name":"glassL",
			"rotation":[
				0.7071068286895752,
				0,
				0,
				0.7071068286895752
			],
			"scale":[
				1.5102965831756592,
				1.5102965831756592,
				1.686314582824707
			],
			"translation":[
				1.1014094352722168,
				3.059258460998535,
				1.3604947328567505
			]
		},
		{
			"mesh":2,
			"name":"glassR",
			"rotation":[
				0.7071068286895752,
				0,
				0,
				0.7071068286895752
			],
			"scale":[
				1.5102965831756592,
				1.5102965831756592,
				1.686314582824707
			],
			"translation":[
				1.1014094352722168,
				3.059258460998535,
				-1.380261778831482
			]
		},
		{
			"mesh":3,
			"name":"glassT.001",
			"rotation":[
				-1,
				0,
				0,
				1.6292068494294654e-07
			],
			"scale":[
				1.5102965831756592,
				1.5102965831756592,
				1.4303476810455322
			],
			"translation":[
				1.1014094352722168,
				4.7259674072265625,
				-0.02204132080078125
			]
		},
		{
			"mesh":4,
			"name":"glassF.002",
			"rotation":[
				0.5,
				0.5,
				-0.5,
				0.5
			],
			"scale":[
				1.3610063791275024,
				1.5102965831756592,
				1.686314582824707
			],
			"translation":[
				2.6512629985809326,
				3.059258460998535,
				-0.03293895721435547
			]
		},
		{
			"mesh":5,
			"name":"button_tare",
			"rotation":[
				0,
				0,
				-0.2968025505542755,
				0.9549388885498047
			],
			"scale":[
				-1.1095956563949585,
				-0.7661676406860352,
				-1.3455322980880737
			],
			"translation":[
				3.3727738857269287,
				1.103720784187317,
				-0.9604957103729248
			]
		},
		{
			"mesh":6,
			"name":"button_select",
			"rotation":[
				0,
				0,
				-0.2968025505542755,
				0.9549388885498047
			],
			"scale":[
				-1.1095956563949585,
				-0.7661677002906799,
				-0.9353940486907959
			],
			"translation":[
				3.3727738857269287,
				1.103720784187317,
				-0.6123313903808594
			]
		},
		{
			"mesh":7,
			"name":"button_cal",
			"rotation":[
				0,
				0,
				-0.2968025505542755,
				0.9549388885498047
			],
			"scale":[
				-1.1095956563949585,
				-0.7661677002906799,
				-0.9353940486907959
			],
			"translation":[
				3.3727738857269287,
				1.103720784187317,
				-0.3225315809249878
			]
		},
		{
			"mesh":8,
			"name":"button_set",
			"rotation":[
				0,
				0,
				-0.2968025505542755,
				0.9549388885498047
			],
			"scale":[
				-1.1095956563949585,
				-0.7661677002906799,
				-0.9353940486907959
			],
			"translation":[
				3.3727738857269287,
				1.103720784187317,
				-0.03444206714630127
			]
		},
		{
			"mesh":9,
			"name":"button_onoff",
			"rotation":[
				0,
				0,
				-0.2968025505542755,
				0.9549388885498047
			],
			"scale":[
				-1.1095956563949585,
				-0.7661677002906799,
				-0.9353940486907959
			],
			"translation":[
				3.3727738857269287,
				1.103720784187317,
				0.2554161250591278
			]
		},
		{
			"mesh":10,
			"name":"screen",
			"rotation":[
				0,
				0,
				-0.2968025505542755,
				0.9549388885498047
			],
			"translation":[
				3.046933650970459,
				1.3174381256103516,
				-0.0014899969100952148
			]
		},
		{
			"mesh":11,
			"name":"brand",
			"rotation":[
				0,
				0,
				-0.2968025505542755,
				0.9549388885498047
			],
			"translation":[
				3.4091930389404297,
				1.0562970638275146,
				0.8050553202629089
			]
		}
	],
	"materials":[
		{
			"doubleSided":true,
			"name":"metal",
			"pbrMetallicRoughness":{
				"baseColorFactor":[
					0.8000000715255737,
					0.7241950035095215,
					0.6082573533058167,
					1
				],
				"metallicFactor":0.6513761281967163,
				"roughnessFactor":0.6743119359016418
			}
		},
		{
			"doubleSided":true,
			"name":"weighting_plate",
			"pbrMetallicRoughness":{
				"baseColorFactor":[
					1,
					0.966014564037323,
					0.9305277466773987,
					1
				]
			}
		},
		{
			"doubleSided":true,
			"name":"Material.001",
			"pbrMetallicRoughness":{}
		},
		{
			"doubleSided":true,
			"name":"button",
			"pbrMetallicRoughness":{
				"baseColorFactor":[
					0.01954413764178753,
					0,
					0.0004438851319719106,
					1
				],
				"metallicFactor":0,
				"roughnessFactor":0.5
			}
		},
		{
			"doubleSided":true,
			"name":"Material.002",
			"pbrMetallicRoughness":{
				"baseColorFactor":[
					0,
					0.032440606504678726,
					0.0007075914181768894,
					0.4
				],
				"metallicFactor":0,
				"roughnessFactor":0.5
			}
		},
		{
			"doubleSided":true,
			"name":"Material.005",
			"pbrMetallicRoughness":{
				"baseColorFactor":[
					0.48780563473701477,
					0.48780563473701477,
					0.48780563473701477,
					1
				],
				"roughnessFactor":0.3623853325843811
			}
		}
	],
	"meshes":[
		{
			"name":"Plane",
			"primitives":[
				{
					"attributes":{
						"POSITION":0,
						"NORMAL":1,
						"TEXCOORD_0":2
					},
					"indices":3,
					"material":0
				}
			]
		},
		{
			"name":"Circle",
			"primitives":[
				{
					"attributes":{
						"POSITION":4,
						"NORMAL":5,
						"TEXCOORD_0":6
					},
					"indices":7,
					"material":1
				}
			]
		},
		{
			"name":"Plane.001",
			"primitives":[
				{
					"attributes":{
						"POSITION":8,
						"NORMAL":9,
						"TEXCOORD_0":10
					},
					"indices":11,
					"material":2
				}
			]
		},
		{
			"name":"Plane.002",
			"primitives":[
				{
					"attributes":{
						"POSITION":12,
						"NORMAL":13,
						"TEXCOORD_0":14
					},
					"indices":11,
					"material":2
				}
			]
		},
		{
			"name":"Plane.003",
			"primitives":[
				{
					"attributes":{
						"POSITION":15,
						"NORMAL":16,
						"TEXCOORD_0":17
					},
					"indices":11,
					"material":2
				}
			]
		},
		{
			"name":"Cube",
			"primitives":[
				{
					"attributes":{
						"POSITION":18,
						"NORMAL":19,
						"TEXCOORD_0":20
					},
					"indices":21,
					"material":3
				}
			]
		},
		{
			"name":"Cube.001",
			"primitives":[
				{
					"attributes":{
						"POSITION":22,
						"NORMAL":23,
						"TEXCOORD_0":24
					},
					"indices":21,
					"material":3
				}
			]
		},
		{
			"name":"Cube.002",
			"primitives":[
				{
					"attributes":{
						"POSITION":25,
						"NORMAL":26,
						"TEXCOORD_0":27
					},
					"indices":21,
					"material":3
				}
			]
		},
		{
			"name":"Cube.003",
			"primitives":[
				{
					"attributes":{
						"POSITION":28,
						"NORMAL":29,
						"TEXCOORD_0":30
					},
					"indices":21,
					"material":3
				}
			]
		},
		{
			"name":"Cube.004",
			"primitives":[
				{
					"attributes":{
						"POSITION":31,
						"NORMAL":32,
						"TEXCOORD_0":33
					},
					"indices":21,
					"material":3
				}
			]
		},
		{
			"name":"Cube.005",
			"primitives":[
				{
					"attributes":{
						"POSITION":34,
						"NORMAL":35,
						"TEXCOORD_0":36
					},
					"indices":37,
					"material":4
				}
			]
		},
		{
			"name":"Cube.006",
			"primitives":[
				{
					"attributes":{
						"POSITION":38,
						"NORMAL":39,
						"TEXCOORD_0":40
					},
					"indices":41,
					"material":5
				}
			]
		}
	],
	"accessors":[
		{
			"bufferView":0,
			"componentType":5126,
			"count":171,
			"max":[
				1,
				2.45424747467041,
				1
			],
			"min":[
				-0.714535117149353,
				0.36551567912101746,
				-1
			],
			"type":"VEC3"
		},
		{
			"bufferView":1,
			"componentType":5126,
			"count":171,
			"type":"VEC3"
		},
		{
			"bufferView":2,
			"componentType":5126,
			"count":171,
			"type":"VEC2"
		},
		{
			"bufferView":3,
			"componentType":5123,
			"count":366,
			"type":"SCALAR"
		},
		{
			"bufferView":4,
			"componentType":5126,
			"count":352,
			"max":[
				1.23004150390625,
				0.3270248770713806,
				1.23004150390625
			],
			"min":[
				-1.230041265487671,
				0,
				-1.2300413846969604
			],
			"type":"VEC3"
		},
		{
			"bufferView":5,
			"componentType":5126,
			"count":352,
			"type":"VEC3"
		},
		{
			"bufferView":6,
			"componentType":5126,
			"count":352,
			"type":"VEC2"
		},
		{
			"bufferView":7,
			"componentType":5123,
			"count":666,
			"type":"SCALAR"
		},
		{
			"bufferView":8,
			"componentType":5126,
			"count":4,
			"max":[
				1,
				0,
				1
			],
			"min":[
				-1,
				0,
				-1
			],
			"type":"VEC3"
		},
		{
			"bufferView":9,
			"componentType":5126,
			"count":4,
			"type":"VEC3"
		},
		{
			"bufferView":10,
			"componentType":5126,
			"count":4,
			"type":"VEC2"
		},
		{
			"bufferView":11,
			"componentType":5123,
			"count":6,
			"type":"SCALAR"
		},
		{
			"bufferView":12,
			"componentType":5126,
			"count":4,
			"max":[
				1,
				0,
				1
			],
			"min":[
				-1,
				0,
				-1
			],
			"type":"VEC3"
		},
		{
			"bufferView":13,
			"componentType":5126,
			"count":4,
			"type":"VEC3"
		},
		{
			"bufferView":14,
			"componentType":5126,
			"count":4,
			"type":"VEC2"
		},
		{
			"bufferView":15,
			"componentType":5126,
			"count":4,
			"max":[
				1,
				0,
				1
			],
			"min":[
				-1,
				0,
				-1
			],
			"type":"VEC3"
		},
		{
			"bufferView":16,
			"componentType":5126,
			"count":4,
			"type":"VEC3"
		},
		{
			"bufferView":17,
			"componentType":5126,
			"count":4,
			"type":"VEC2"
		},
		{
			"bufferView":18,
			"componentType":5126,
			"count":240,
			"max":[
				0.0862872302532196,
				0.052238937467336655,
				0.14053326845169067
			],
			"min":[
				-0.0862872302532196,
				-0.052238937467336655,
				-0.14053326845169067
			],
			"type":"VEC3"
		},
		{
			"bufferView":19,
			"componentType":5126,
			"count":240,
			"type":"VEC3"
		},
		{
			"bufferView":20,
			"componentType":5126,
			"count":240,
			"type":"VEC2"
		},
		{
			"bufferView":21,
			"componentType":5123,
			"count":468,
			"type":"SCALAR"
		},
		{
			"bufferView":22,
			"componentType":5126,
			"count":240,
			"max":[
				0.0862872302532196,
				0.052238937467336655,
				0.14053326845169067
			],
			"min":[
				-0.0862872302532196,
				-0.052238937467336655,
				-0.14053326845169067
			],
			"type":"VEC3"
		},
		{
			"bufferView":23,
			"componentType":5126,
			"count":240,
			"type":"VEC3"
		},
		{
			"bufferView":24,
			"componentType":5126,
			"count":240,
			"type":"VEC2"
		},
		{
			"bufferView":25,
			"componentType":5126,
			"count":240,
			"max":[
				0.0862872302532196,
				0.052238937467336655,
				0.14053326845169067
			],
			"min":[
				-0.0862872302532196,
				-0.052238937467336655,
				-0.14053326845169067
			],
			"type":"VEC3"
		},
		{
			"bufferView":26,
			"componentType":5126,
			"count":240,
			"type":"VEC3"
		},
		{
			"bufferView":27,
			"componentType":5126,
			"count":240,
			"type":"VEC2"
		},
		{
			"bufferView":28,
			"componentType":5126,
			"count":240,
			"max":[
				0.0862872302532196,
				0.052238937467336655,
				0.14053326845169067
			],
			"min":[
				-0.0862872302532196,
				-0.052238937467336655,
				-0.14053326845169067
			],
			"type":"VEC3"
		},
		{
			"bufferView":29,
			"componentType":5126,
			"count":240,
			"type":"VEC3"
		},
		{
			"bufferView":30,
			"componentType":5126,
			"count":240,
			"type":"VEC2"
		},
		{
			"bufferView":31,
			"componentType":5126,
			"count":240,
			"max":[
				0.0862872302532196,
				0.052238937467336655,
				0.14053326845169067
			],
			"min":[
				-0.0862872302532196,
				-0.052238937467336655,
				-0.14053326845169067
			],
			"type":"VEC3"
		},
		{
			"bufferView":32,
			"componentType":5126,
			"count":240,
			"type":"VEC3"
		},
		{
			"bufferView":33,
			"componentType":5126,
			"count":240,
			"type":"VEC2"
		},
		{
			"bufferView":34,
			"componentType":5126,
			"count":16,
			"max":[
				0.16134952008724213,
				0,
				1.167883276939392
			],
			"min":[
				-0.16134952008724213,
				0,
				-1.167883276939392
			],
			"type":"VEC3"
		},
		{
			"bufferView":35,
			"componentType":5126,
			"count":16,
			"type":"VEC3"
		},
		{
			"bufferView":36,
			"componentType":5126,
			"count":16,
			"type":"VEC2"
		},
		{
			"bufferView":37,
			"componentType":5123,
			"count":36,
			"type":"SCALAR"
		},
		{
			"bufferView":38,
			"componentType":5126,
			"count":24,
			"max":[
				0.13660608232021332,
				0.012716990895569324,
				0.34079569578170776
			],
			"min":[
				-0.13660608232021332,
				-0.012716990895569324,
				-0.34079569578170776
			],
			"type":"VEC3"
		},
		{
			"bufferView":39,
			"componentType":5126,
			"count":24,
			"type":"VEC3"
		},
		{
			"bufferView":40,
			"componentType":5126,
			"count":24,
			"type":"VEC2"
		},
		{
			"bufferView":41,
			"componentType":5123,
			"count":36,
			"type":"SCALAR"
		}
	],
	"bufferViews":[
		{
			"buffer":0,
			"byteLength":2052,
			"byteOffset":0,
			"target":34962
		},
		{
			"buffer":0,
			"byteLength":2052,
			"byteOffset":2052,
			"target":34962
		},
		{
			"buffer":0,
			"byteLength":1368,
			"byteOffset":4104,
			"target":34962
		},
		{
			"buffer":0,
			"byteLength":732,
			"byteOffset":5472,
			"target":34963
		},
		{
			"buffer":0,
			"byteLength":4224,
			"byteOffset":6204,
			"target":34962
		},
		{
			"buffer":0,
			"byteLength":4224,
			"byteOffset":10428,
			"target":34962
		},
		{
			"buffer":0,
			"byteLength":2816,
			"byteOffset":14652,
			"target":34962
		},
		{
			"buffer":0,
			"byteLength":1332,
			"byteOffset":17468,
			"target":34963
		},
		{
			"buffer":0,
			"byteLength":48,
			"byteOffset":18800,
			"target":34962
		},
		{
			"buffer":0,
			"byteLength":48,
			"byteOffset":18848,
			"target":34962
		},
		{
			"buffer":0,
			"byteLength":32,
			"byteOffset":18896,
			"target":34962
		},
		{
			"buffer":0,
			"byteLength":12,
			"byteOffset":18928,
			"target":34963
		},
		{
			"buffer":0,
			"byteLength":48,
			"byteOffset":18940,
			"target":34962
		},
		{
			"buffer":0,
			"byteLength":48,
			"byteOffset":18988,
			"target":34962
		},
		{
			"buffer":0,
			"byteLength":32,
			"byteOffset":19036,
			"target":34962
		},
		{
			"buffer":0,
			"byteLength":48,
			"byteOffset":19068,
			"target":34962
		},
		{
			"buffer":0,
			"byteLength":48,
			"byteOffset":19116,
			"target":34962
		},
		{
			"buffer":0,
			"byteLength":32,
			"byteOffset":19164,
			"target":34962
		},
		{
			"buffer":0,
			"byteLength":2880,
			"byteOffset":19196,
			"target":34962
		},
		{
			"buffer":0,
			"byteLength":2880,
			"byteOffset":22076,
			"target":34962
		},
		{
			"buffer":0,
			"byteLength":1920,
			"byteOffset":24956,
			"target":34962
		},
		{
			"buffer":0,
			"byteLength":936,
			"byteOffset":26876,
			"target":34963
		},
		{
			"buffer":0,
			"byteLength":2880,
			"byteOffset":27812,
			"target":34962
		},
		{
			"buffer":0,
			"byteLength":2880,
			"byteOffset":30692,
			"target":34962
		},
		{
			"buffer":0,
			"byteLength":1920,
			"byteOffset":33572,
			"target":34962
		},
		{
			"buffer":0,
			"byteLength":2880,
			"byteOffset":35492,
			"target":34962
		},
		{
			"buffer":0,
			"byteLength":2880,
			"byteOffset":38372,
			"target":34962
		},
		{
			"buffer":0,
			"byteLength":1920,
			"byteOffset":41252,
			"target":34962
		},
		{
			"buffer":0,
			"byteLength":2880,
			"byteOffset":43172,
			"target":34962
		},
		{
			"buffer":0,
			"byteLength":2880,
			"byteOffset":46052,
			"target":34962
		},
		{
			"buffer":0,
			"byteLength":1920,
			"byteOffset":48932,
			"target":34962
		},
		{
			"buffer":0,
			"byteLength":2880,
			"byteOffset":50852,
			"target":34962
		},
		{
			"buffer":0,
			"byteLength":2880,
			"byteOffset":53732,
			"target":34962
		},
		{
			"buffer":0,
			"byteLength":1920,
			"byteOffset":56612,
			"target":34962
		},
		{
			"buffer":0,
			"byteLength":192,
			"byteOffset":58532,
			"target":34962
		},
		{
			"buffer":0,
			"byteLength":192,
			"byteOffset":58724,
			"target":34962
		},
		{
			"buffer":0,
			"byteLength":128,
			"byteOffset":58916,
			"target":34962
		},
		{
			"buffer":0,
			"byteLength":72,
			"byteOffset":59044,
			"target":34963
		},
		{
			"buffer":0,
			"byteLength":288,
			"byteOffset":59116,
			"target":34962
		},
		{
			"buffer":0,
			"byteLength":288,
			"byteOffset":59404,
			"target":34962
		},
		{
			"buffer":0,
			"byteLength":192,
			"byteOffset":59692,
			"target":34962
		},
		{
			"buffer":0,
			"byteLength":72,
			"byteOffset":59884,
			"target":34963
		}
	],
	"buffers":[
		{
			"byteLength":59956,
			"uri":"balance_1003.bin"
		}
	]
}
