{
	"asset":{
		"generator":"Khronos glTF Blender I/O v3.6.27",
		"version":"2.0"
	},
	"scene":0,
	"scenes":[
		{
			"name":"Scene",
			"nodes":[
				0,
				1,
				2,
				3,
				5,
				6,
				7,
				8,
				9,
				10,
				11,
				12,
				13,
				14
			]
		}
	],
	"nodes":[
		{
			"mesh":0,
			"name":"Cube.001",
			"scale":[
				0.03969114273786545,
				0.22136229276657104,
				0.06975627690553665
			],
			"translation":[
				2.2741048336029053,
				3.1302220821380615,
				-1.4131063222885132
			]
		},
		{
			"mesh":1,
			"name":"balance",
			"scale":[
				3.658799409866333,
				1.956199288368225,
				1.419113039970398
			]
		},
		{
			"mesh":2,
			"name":"plate",
			"scale":[
				0.7920758128166199,
				0.7920758128166199,
				0.7920758128166199
			],
			"translation":[
				1.275852084159851,
				1.4851465225219727,
				0
			]
		},
		{
			"mesh":3,
			"name":"glassL",
			"rotation":[
				0.7071068286895752,
				0,
				0,
				0.7071068286895752
			],
			"scale":[
				1.5102965831756592,
				1.5102965831756592,
				1.686314582824707
			],
			"translation":[
				1.1014100313186646,
				3.059258460998535,
				1.3604947328567505
			]
		},
		{
			"mesh":4,
			"name":"Cube",
			"rotation":[
				-0.7071068286895752,
				0,
				0,
				0.7071068286895752
			],
			"scale":[
				0.0262803602963686,
				0.13126985728740692,
				0.046187132596969604
			],
			"translation":[
				0.7764667868614197,
				-0.021747084334492683,
				-0.042082153260707855
			]
		},
		{
			"children":[
				4
			],
			"mesh":3,
			"name":"glassR",
			"rotation":[
				0.7071068286895752,
				0,
				0,
				0.7071068286895752
			],
			"scale":[
				1.5102965831756592,
				1.5102965831756592,
				1.686314582824707
			],
			"translation":[
				1.1014100313186646,
				3.059258460998535,
				-1.3802599906921387
			]
		},
		{
			"mesh":5,
			"name":"glassT.001",
			"rotation":[
				-1,
				0,
				0,
				1.6292068494294654e-07
			],
			"scale":[
				1.436729907989502,
				1.436729907989502,
				1.36067533493042
			],
			"translation":[
				1.1014094352722168,
				4.7259674072265625,
				0.009871900081634521
			]
		},
		{
			"mesh":6,
			"name":"glassF.002",
			"rotation":[
				0.5,
				0.5,
				-0.5,
				0.5
			],
			"scale":[
				1.3610063791275024,
				1.5102965831756592,
				1.686314582824707
			],
			"translation":[
				2.6512629985809326,
				3.059258460998535,
				-0.03293895721435547
			]
		},
		{
			"mesh":7,
			"name":"button_tare",
			"rotation":[
				0,
				0,
				-0.2968025505542755,
				0.9549388885498047
			],
			"scale":[
				-1.1095956563949585,
				-0.7661676406860352,
				-1.3455322980880737
			],
			"translation":[
				3.3727738857269287,
				1.103720784187317,
				-0.9604957103729248
			]
		},
		{
			"mesh":8,
			"name":"button_select",
			"rotation":[
				0,
				0,
				-0.2968025505542755,
				0.9549388885498047
			],
			"scale":[
				-1.1095956563949585,
				-0.7661677002906799,
				-0.9353940486907959
			],
			"translation":[
				3.3727738857269287,
				1.103720784187317,
				-0.6123313903808594
			]
		},
		{
			"mesh":9,
			"name":"button_cal",
			"rotation":[
				0,
				0,
				-0.2968025505542755,
				0.9549388885498047
			],
			"scale":[
				-1.1095956563949585,
				-0.7661677002906799,
				-0.9353940486907959
			],
			"translation":[
				3.3727738857269287,
				1.103720784187317,
				-0.3225315809249878
			]
		},
		{
			"mesh":10,
			"name":"button_set",
			"rotation":[
				0,
				0,
				-0.2968025505542755,
				0.9549388885498047
			],
			"scale":[
				-1.1095956563949585,
				-0.7661677002906799,
				-0.9353940486907959
			],
			"translation":[
				3.3727738857269287,
				1.103720784187317,
				-0.03444206714630127
			]
		},
		{
			"mesh":11,
			"name":"button_onoff",
			"rotation":[
				0,
				0,
				-0.2968025505542755,
				0.9549388885498047
			],
			"scale":[
				-1.1095956563949585,
				-0.7661677002906799,
				-0.9353940486907959
			],
			"translation":[
				3.3727738857269287,
				1.103720784187317,
				0.2554161250591278
			]
		},
		{
			"mesh":12,
			"name":"screen",
			"rotation":[
				0,
				0,
				-0.2968025505542755,
				0.9549388885498047
			],
			"translation":[
				3.046933650970459,
				1.3174381256103516,
				-0.0014899969100952148
			]
		},
		{
			"mesh":13,
			"name":"brand",
			"rotation":[
				0,
				0,
				-0.2968025505542755,
				0.9549388885498047
			],
			"translation":[
				3.4091930389404297,
				1.0562970638275146,
				0.8050553202629089
			]
		}
	],
	"animations":[
		{
			"channels":[
				{
					"sampler":0,
					"target":{
						"node":5,
						"path":"translation"
					}
				}
			],
			"name":"glassRAction.002",
			"samplers":[
				{
					"input":52,
					"interpolation":"LINEAR",
					"output":53
				}
			]
		}
	],
	"materials":[
		{
			"doubleSided":true,
			"name":"metal",
			"pbrMetallicRoughness":{
				"baseColorFactor":[
					0.8000000715255737,
					0.7241950035095215,
					0.6082573533058167,
					0.5
				],
				"metallicFactor":0.6513761281967163,
				"roughnessFactor":0.6743119359016418
			}
		},
		{
			"doubleSided":true,
			"name":"weighting_plate",
			"pbrMetallicRoughness":{
				"baseColorFactor":[
					1,
					0.966014564037323,
					0.9305277466773987,
					0.5
				]
			}
		},
		{
			"alphaMode":"BLEND",
			"name":"Glass.001",
			"normalTexture":{
				"index":0
			},
			"occlusionTexture":{
				"index":1
			},
			"pbrMetallicRoughness":{
				"baseColorTexture":{
					"index":2
				},
				"metallicRoughnessTexture":{
					"index":1
				}
			}
		},
		{
			"doubleSided":true,
			"name":"button",
			"pbrMetallicRoughness":{
				"baseColorFactor":[
					0.01954413764178753,
					0,
					0.0004438851319719106,
					0.5
				],
				"metallicFactor":0,
				"roughnessFactor":0.5
			}
		},
		{
			"doubleSided":true,
			"name":"Material.002",
			"pbrMetallicRoughness":{
				"baseColorFactor":[
					0,
					0.032440606504678726,
					0.0007075914181768894,
					0.5
				],
				"metallicFactor":0,
				"roughnessFactor":0.5
			}
		},
		{
			"doubleSided":true,
			"name":"Material.005",
			"pbrMetallicRoughness":{
				"baseColorFactor":[
					0.48780563473701477,
					0.48780563473701477,
					0.48780563473701477,
					0.5
				],
				"roughnessFactor":0.3623853325843811
			}
		}
	],
	"meshes":[
		{
			"name":"Cube.008",
			"primitives":[
				{
					"attributes":{
						"POSITION":0,
						"NORMAL":1,
						"TEXCOORD_0":2
					},
					"indices":3,
					"material":0
				}
			]
		},
		{
			"name":"Plane",
			"primitives":[
				{
					"attributes":{
						"POSITION":4,
						"NORMAL":5,
						"TEXCOORD_0":6
					},
					"indices":7,
					"material":0
				}
			]
		},
		{
			"name":"Circle",
			"primitives":[
				{
					"attributes":{
						"POSITION":8,
						"NORMAL":9,
						"TEXCOORD_0":10
					},
					"indices":11,
					"material":1
				}
			]
		},
		{
			"name":"Plane.001",
			"primitives":[
				{
					"attributes":{
						"POSITION":12,
						"NORMAL":13,
						"TEXCOORD_0":14
					},
					"indices":15,
					"material":2
				}
			]
		},
		{
			"name":"Cube.007",
			"primitives":[
				{
					"attributes":{
						"POSITION":16,
						"NORMAL":17,
						"TEXCOORD_0":18
					},
					"indices":19,
					"material":0
				}
			]
		},
		{
			"name":"Plane.002",
			"primitives":[
				{
					"attributes":{
						"POSITION":20,
						"NORMAL":21,
						"TEXCOORD_0":22
					},
					"indices":23,
					"material":2
				}
			]
		},
		{
			"name":"Plane.003",
			"primitives":[
				{
					"attributes":{
						"POSITION":24,
						"NORMAL":25,
						"TEXCOORD_0":26
					},
					"indices":27,
					"material":2
				}
			]
		},
		{
			"name":"Cube",
			"primitives":[
				{
					"attributes":{
						"POSITION":28,
						"NORMAL":29,
						"TEXCOORD_0":30
					},
					"indices":31,
					"material":3
				}
			]
		},
		{
			"name":"Cube.001",
			"primitives":[
				{
					"attributes":{
						"POSITION":32,
						"NORMAL":33,
						"TEXCOORD_0":34
					},
					"indices":31,
					"material":3
				}
			]
		},
		{
			"name":"Cube.002",
			"primitives":[
				{
					"attributes":{
						"POSITION":35,
						"NORMAL":36,
						"TEXCOORD_0":37
					},
					"indices":31,
					"material":3
				}
			]
		},
		{
			"name":"Cube.003",
			"primitives":[
				{
					"attributes":{
						"POSITION":38,
						"NORMAL":39,
						"TEXCOORD_0":40
					},
					"indices":31,
					"material":3
				}
			]
		},
		{
			"name":"Cube.004",
			"primitives":[
				{
					"attributes":{
						"POSITION":41,
						"NORMAL":42,
						"TEXCOORD_0":43
					},
					"indices":31,
					"material":3
				}
			]
		},
		{
			"name":"Cube.005",
			"primitives":[
				{
					"attributes":{
						"POSITION":44,
						"NORMAL":45,
						"TEXCOORD_0":46
					},
					"indices":47,
					"material":4
				}
			]
		},
		{
			"name":"Cube.006",
			"primitives":[
				{
					"attributes":{
						"POSITION":48,
						"NORMAL":49,
						"TEXCOORD_0":50
					},
					"indices":51,
					"material":5
				}
			]
		}
	],
	"textures":[
		{
			"sampler":0,
			"source":0
		},
		{
			"sampler":0,
			"source":1
		},
		{
			"sampler":0,
			"source":2
		}
	],
	"images":[
		{
			"mimeType":"image/png",
			"name":"Image_2",
			"uri":"Image_2.png"
		},
		{
			"mimeType":"image/png",
			"name":"Image_1",
			"uri":"Image_1.png"
		},
		{
			"mimeType":"image/png",
			"name":"Image_0",
			"uri":"Image_0.png"
		}
	],
	"accessors":[
		{
			"bufferView":0,
			"componentType":5126,
			"count":78,
			"max":[
				0.9999961853027344,
				0.9999990463256836,
				41.515533447265625
			],
			"min":[
				-1.0000038146972656,
				-1.0000009536743164,
				39.652626037597656
			],
			"type":"VEC3"
		},
		{
			"bufferView":1,
			"componentType":5126,
			"count":78,
			"type":"VEC3"
		},
		{
			"bufferView":2,
			"componentType":5126,
			"count":78,
			"type":"VEC2"
		},
		{
			"bufferView":3,
			"componentType":5123,
			"count":324,
			"type":"SCALAR"
		},
		{
			"bufferView":4,
			"componentType":5126,
			"count":171,
			"max":[
				1,
				2.45424747467041,
				1
			],
			"min":[
				-0.20166301727294922,
				0.36551567912101746,
				-1
			],
			"type":"VEC3"
		},
		{
			"bufferView":5,
			"componentType":5126,
			"count":171,
			"type":"VEC3"
		},
		{
			"bufferView":6,
			"componentType":5126,
			"count":171,
			"type":"VEC2"
		},
		{
			"bufferView":7,
			"componentType":5123,
			"count":366,
			"type":"SCALAR"
		},
		{
			"bufferView":8,
			"componentType":5126,
			"count":352,
			"max":[
				1.23004150390625,
				0.3270248770713806,
				1.23004150390625
			],
			"min":[
				-1.230041265487671,
				0,
				-1.2300413846969604
			],
			"type":"VEC3"
		},
		{
			"bufferView":9,
			"componentType":5126,
			"count":352,
			"type":"VEC3"
		},
		{
			"bufferView":10,
			"componentType":5126,
			"count":352,
			"type":"VEC2"
		},
		{
			"bufferView":11,
			"componentType":5123,
			"count":666,
			"type":"SCALAR"
		},
		{
			"bufferView":12,
			"componentType":5126,
			"count":24,
			"max":[
				1,
				0.03310607746243477,
				1
			],
			"min":[
				-1,
				0,
				-1
			],
			"type":"VEC3"
		},
		{
			"bufferView":13,
			"componentType":5126,
			"count":24,
			"type":"VEC3"
		},
		{
			"bufferView":14,
			"componentType":5126,
			"count":24,
			"type":"VEC2"
		},
		{
			"bufferView":15,
			"componentType":5123,
			"count":36,
			"type":"SCALAR"
		},
		{
			"bufferView":16,
			"componentType":5126,
			"count":78,
			"max":[
				1,
				1,
				0.862906813621521
			],
			"min":[
				-1,
				-1,
				-1
			],
			"type":"VEC3"
		},
		{
			"bufferView":17,
			"componentType":5126,
			"count":78,
			"type":"VEC3"
		},
		{
			"bufferView":18,
			"componentType":5126,
			"count":78,
			"type":"VEC2"
		},
		{
			"bufferView":19,
			"componentType":5123,
			"count":324,
			"type":"SCALAR"
		},
		{
			"bufferView":20,
			"componentType":5126,
			"count":24,
			"max":[
				1,
				0.03480125591158867,
				1
			],
			"min":[
				-1,
				0,
				-1
			],
			"type":"VEC3"
		},
		{
			"bufferView":21,
			"componentType":5126,
			"count":24,
			"type":"VEC3"
		},
		{
			"bufferView":22,
			"componentType":5126,
			"count":24,
			"type":"VEC2"
		},
		{
			"bufferView":23,
			"componentType":5123,
			"count":36,
			"type":"SCALAR"
		},
		{
			"bufferView":24,
			"componentType":5126,
			"count":24,
			"max":[
				1,
				0,
				1
			],
			"min":[
				-1,
				-0.03310608118772507,
				-1
			],
			"type":"VEC3"
		},
		{
			"bufferView":25,
			"componentType":5126,
			"count":24,
			"type":"VEC3"
		},
		{
			"bufferView":26,
			"componentType":5126,
			"count":24,
			"type":"VEC2"
		},
		{
			"bufferView":27,
			"componentType":5123,
			"count":36,
			"type":"SCALAR"
		},
		{
			"bufferView":28,
			"componentType":5126,
			"count":240,
			"max":[
				0.0862872302532196,
				0.052238937467336655,
				0.14053326845169067
			],
			"min":[
				-0.0862872302532196,
				-0.052238937467336655,
				-0.14053326845169067
			],
			"type":"VEC3"
		},
		{
			"bufferView":29,
			"componentType":5126,
			"count":240,
			"type":"VEC3"
		},
		{
			"bufferView":30,
			"componentType":5126,
			"count":240,
			"type":"VEC2"
		},
		{
			"bufferView":31,
			"componentType":5123,
			"count":468,
			"type":"SCALAR"
		},
		{
			"bufferView":32,
			"componentType":5126,
			"count":240,
			"max":[
				0.0862872302532196,
				0.052238937467336655,
				0.14053326845169067
			],
			"min":[
				-0.0862872302532196,
				-0.052238937467336655,
				-0.14053326845169067
			],
			"type":"VEC3"
		},
		{
			"bufferView":33,
			"componentType":5126,
			"count":240,
			"type":"VEC3"
		},
		{
			"bufferView":34,
			"componentType":5126,
			"count":240,
			"type":"VEC2"
		},
		{
			"bufferView":35,
			"componentType":5126,
			"count":240,
			"max":[
				0.0862872302532196,
				0.052238937467336655,
				0.14053326845169067
			],
			"min":[
				-0.0862872302532196,
				-0.052238937467336655,
				-0.14053326845169067
			],
			"type":"VEC3"
		},
		{
			"bufferView":36,
			"componentType":5126,
			"count":240,
			"type":"VEC3"
		},
		{
			"bufferView":37,
			"componentType":5126,
			"count":240,
			"type":"VEC2"
		},
		{
			"bufferView":38,
			"componentType":5126,
			"count":240,
			"max":[
				0.0862872302532196,
				0.052238937467336655,
				0.14053326845169067
			],
			"min":[
				-0.0862872302532196,
				-0.052238937467336655,
				-0.14053326845169067
			],
			"type":"VEC3"
		},
		{
			"bufferView":39,
			"componentType":5126,
			"count":240,
			"type":"VEC3"
		},
		{
			"bufferView":40,
			"componentType":5126,
			"count":240,
			"type":"VEC2"
		},
		{
			"bufferView":41,
			"componentType":5126,
			"count":240,
			"max":[
				0.0862872302532196,
				0.052238937467336655,
				0.14053326845169067
			],
			"min":[
				-0.0862872302532196,
				-0.052238937467336655,
				-0.14053326845169067
			],
			"type":"VEC3"
		},
		{
			"bufferView":42,
			"componentType":5126,
			"count":240,
			"type":"VEC3"
		},
		{
			"bufferView":43,
			"componentType":5126,
			"count":240,
			"type":"VEC2"
		},
		{
			"bufferView":44,
			"componentType":5126,
			"count":16,
			"max":[
				0.16134952008724213,
				0,
				1.167883276939392
			],
			"min":[
				-0.16134952008724213,
				0,
				-1.167883276939392
			],
			"type":"VEC3"
		},
		{
			"bufferView":45,
			"componentType":5126,
			"count":16,
			"type":"VEC3"
		},
		{
			"bufferView":46,
			"componentType":5126,
			"count":16,
			"type":"VEC2"
		},
		{
			"bufferView":47,
			"componentType":5123,
			"count":36,
			"type":"SCALAR"
		},
		{
			"bufferView":48,
			"componentType":5126,
			"count":24,
			"max":[
				0.13660608232021332,
				0.012716990895569324,
				0.34079569578170776
			],
			"min":[
				-0.13660608232021332,
				-0.012716990895569324,
				-0.34079569578170776
			],
			"type":"VEC3"
		},
		{
			"bufferView":49,
			"componentType":5126,
			"count":24,
			"type":"VEC3"
		},
		{
			"bufferView":50,
			"componentType":5126,
			"count":24,
			"type":"VEC2"
		},
		{
			"bufferView":51,
			"componentType":5123,
			"count":36,
			"type":"SCALAR"
		},
		{
			"bufferView":52,
			"componentType":5126,
			"count":48,
			"max":[
				2
			],
			"min":[
				0.041666666666666664
			],
			"type":"SCALAR"
		},
		{
			"bufferView":53,
			"componentType":5126,
			"count":48,
			"type":"VEC3"
		}
	],
	"bufferViews":[
		{
			"buffer":0,
			"byteLength":936,
			"byteOffset":0,
			"target":34962
		},
		{
			"buffer":0,
			"byteLength":936,
			"byteOffset":936,
			"target":34962
		},
		{
			"buffer":0,
			"byteLength":624,
			"byteOffset":1872,
			"target":34962
		},
		{
			"buffer":0,
			"byteLength":648,
			"byteOffset":2496,
			"target":34963
		},
		{
			"buffer":0,
			"byteLength":2052,
			"byteOffset":3144,
			"target":34962
		},
		{
			"buffer":0,
			"byteLength":2052,
			"byteOffset":5196,
			"target":34962
		},
		{
			"buffer":0,
			"byteLength":1368,
			"byteOffset":7248,
			"target":34962
		},
		{
			"buffer":0,
			"byteLength":732,
			"byteOffset":8616,
			"target":34963
		},
		{
			"buffer":0,
			"byteLength":4224,
			"byteOffset":9348,
			"target":34962
		},
		{
			"buffer":0,
			"byteLength":4224,
			"byteOffset":13572,
			"target":34962
		},
		{
			"buffer":0,
			"byteLength":2816,
			"byteOffset":17796,
			"target":34962
		},
		{
			"buffer":0,
			"byteLength":1332,
			"byteOffset":20612,
			"target":34963
		},
		{
			"buffer":0,
			"byteLength":288,
			"byteOffset":21944,
			"target":34962
		},
		{
			"buffer":0,
			"byteLength":288,
			"byteOffset":22232,
			"target":34962
		},
		{
			"buffer":0,
			"byteLength":192,
			"byteOffset":22520,
			"target":34962
		},
		{
			"buffer":0,
			"byteLength":72,
			"byteOffset":22712,
			"target":34963
		},
		{
			"buffer":0,
			"byteLength":936,
			"byteOffset":22784,
			"target":34962
		},
		{
			"buffer":0,
			"byteLength":936,
			"byteOffset":23720,
			"target":34962
		},
		{
			"buffer":0,
			"byteLength":624,
			"byteOffset":24656,
			"target":34962
		},
		{
			"buffer":0,
			"byteLength":648,
			"byteOffset":25280,
			"target":34963
		},
		{
			"buffer":0,
			"byteLength":288,
			"byteOffset":25928,
			"target":34962
		},
		{
			"buffer":0,
			"byteLength":288,
			"byteOffset":26216,
			"target":34962
		},
		{
			"buffer":0,
			"byteLength":192,
			"byteOffset":26504,
			"target":34962
		},
		{
			"buffer":0,
			"byteLength":72,
			"byteOffset":26696,
			"target":34963
		},
		{
			"buffer":0,
			"byteLength":288,
			"byteOffset":26768,
			"target":34962
		},
		{
			"buffer":0,
			"byteLength":288,
			"byteOffset":27056,
			"target":34962
		},
		{
			"buffer":0,
			"byteLength":192,
			"byteOffset":27344,
			"target":34962
		},
		{
			"buffer":0,
			"byteLength":72,
			"byteOffset":27536,
			"target":34963
		},
		{
			"buffer":0,
			"byteLength":2880,
			"byteOffset":27608,
			"target":34962
		},
		{
			"buffer":0,
			"byteLength":2880,
			"byteOffset":30488,
			"target":34962
		},
		{
			"buffer":0,
			"byteLength":1920,
			"byteOffset":33368,
			"target":34962
		},
		{
			"buffer":0,
			"byteLength":936,
			"byteOffset":35288,
			"target":34963
		},
		{
			"buffer":0,
			"byteLength":2880,
			"byteOffset":36224,
			"target":34962
		},
		{
			"buffer":0,
			"byteLength":2880,
			"byteOffset":39104,
			"target":34962
		},
		{
			"buffer":0,
			"byteLength":1920,
			"byteOffset":41984,
			"target":34962
		},
		{
			"buffer":0,
			"byteLength":2880,
			"byteOffset":43904,
			"target":34962
		},
		{
			"buffer":0,
			"byteLength":2880,
			"byteOffset":46784,
			"target":34962
		},
		{
			"buffer":0,
			"byteLength":1920,
			"byteOffset":49664,
			"target":34962
		},
		{
			"buffer":0,
			"byteLength":2880,
			"byteOffset":51584,
			"target":34962
		},
		{
			"buffer":0,
			"byteLength":2880,
			"byteOffset":54464,
			"target":34962
		},
		{
			"buffer":0,
			"byteLength":1920,
			"byteOffset":57344,
			"target":34962
		},
		{
			"buffer":0,
			"byteLength":2880,
			"byteOffset":59264,
			"target":34962
		},
		{
			"buffer":0,
			"byteLength":2880,
			"byteOffset":62144,
			"target":34962
		},
		{
			"buffer":0,
			"byteLength":1920,
			"byteOffset":65024,
			"target":34962
		},
		{
			"buffer":0,
			"byteLength":192,
			"byteOffset":66944,
			"target":34962
		},
		{
			"buffer":0,
			"byteLength":192,
			"byteOffset":67136,
			"target":34962
		},
		{
			"buffer":0,
			"byteLength":128,
			"byteOffset":67328,
			"target":34962
		},
		{
			"buffer":0,
			"byteLength":72,
			"byteOffset":67456,
			"target":34963
		},
		{
			"buffer":0,
			"byteLength":288,
			"byteOffset":67528,
			"target":34962
		},
		{
			"buffer":0,
			"byteLength":288,
			"byteOffset":67816,
			"target":34962
		},
		{
			"buffer":0,
			"byteLength":192,
			"byteOffset":68104,
			"target":34962
		},
		{
			"buffer":0,
			"byteLength":72,
			"byteOffset":68296,
			"target":34963
		},
		{
			"buffer":0,
			"byteLength":192,
			"byteOffset":68368
		},
		{
			"buffer":0,
			"byteLength":576,
			"byteOffset":68560
		}
	],
	"samplers":[
		{
			"magFilter":9729,
			"minFilter":9987
		}
	],
	"buffers":[
		{
			"byteLength":69136,
			"uri":"balance_with_animations.bin"
		}
	]
}
