{
	"asset":{
		"generator":"Khronos glTF Blender I/O v3.6.27",
		"version":"2.0"
	},
	"scene":0,
	"scenes":[
		{
			"name":"Scene",
			"nodes":[
				0
			]
		}
	],
	"nodes":[
		{
			"mesh":0,
			"name":"funnel",
			"translation":[
				0,
				0.02672351896762848,
				0
			]
		}
	],
	"materials":[
		{
			"doubleSided":true,
			"name":"Material.001",
			"pbrMetallicRoughness":{}
		}
	],
	"meshes":[
		{
			"name":"Circle.001",
			"primitives":[
				{
					"attributes":{
						"POSITION":0,
						"NORMAL":1,
						"TEXCOORD_0":2
					},
					"indices":3,
					"material":0
				}
			]
		}
	],
	"accessors":[
		{
			"bufferView":0,
			"componentType":5126,
			"count":1376,
			"max":[
				0.3934054374694824,
				1.2506332397460938,
				0.3934054970741272
			],
			"min":[
				-0.39340537786483765,
				0.0020218687132000923,
				-0.39340531826019287
			],
			"type":"VEC3"
		},
		{
			"bufferView":1,
			"componentType":5126,
			"count":1376,
			"type":"VEC3"
		},
		{
			"bufferView":2,
			"componentType":5126,
			"count":1376,
			"type":"VEC2"
		},
		{
			"bufferView":3,
			"componentType":5123,
			"count":8256,
			"type":"SCALAR"
		}
	],
	"bufferViews":[
		{
			"buffer":0,
			"byteLength":16512,
			"byteOffset":0,
			"target":34962
		},
		{
			"buffer":0,
			"byteLength":16512,
			"byteOffset":16512,
			"target":34962
		},
		{
			"buffer":0,
			"byteLength":11008,
			"byteOffset":33024,
			"target":34962
		},
		{
			"buffer":0,
			"byteLength":16512,
			"byteOffset":44032,
			"target":34963
		}
	],
	"buffers":[
		{
			"byteLength":60544,
			"uri":"funnel_1003.bin"
		}
	]
}
