{
	"asset":{
		"generator":"Khronos glTF Blender I/O v3.6.27",
		"version":"2.0"
	},
	"extensionsUsed":[
		"KHR_materials_clearcoat",
		"KHR_materials_specular",
		"KHR_materials_ior"
	],
	"scene":0,
	"scenes":[
		{
			"name":"Scene",
			"nodes":[
				0,
				1
			]
		}
	],
	"nodes":[
		{
			"mesh":0,
			"name":"dropper"
		},
		{
			"mesh":1,
			"name":"rubber_head",
			"scale":[
				1.100000023841858,
				1.2999999523162842,
				1.100000023841858
			],
			"translation":[
				0,
				0.9012207388877869,
				0
			]
		}
	],
	"materials":[
		{
			"alphaMode":"BLEND",
			"doubleSided":true,
			"name":"Material.001",
			"pbrMetallicRoughness":{}
		},
		{
			"doubleSided":true,
			"extensions":{
				"KHR_materials_clearcoat":{
					"clearcoatFactor":0.33000001311302185,
					"clearcoatRoughnessFactor":0.49060606956481934
				},
				"KHR_materials_specular":{
					"specularColorFactor":[
						2.5064166495776803,
						0.6229811647760025,
						0.5996511348179345
					]
				},
				"KHR_materials_ior":{
					"ior":1.4500000476837158
				}
			},
			"name":"Material.003",
			"pbrMetallicRoughness":{
				"baseColorFactor":[
					0.7223755121231079,
					0.01137851644307375,
					0.002571428893133998,
					1
				],
				"metallicFactor":0
			}
		}
	],
	"meshes":[
		{
			"name":"Circle",
			"primitives":[
				{
					"attributes":{
						"POSITION":0,
						"NORMAL":1,
						"TEXCOORD_0":2
					},
					"indices":3,
					"material":0
				}
			]
		},
		{
			"name":"Circle.001",
			"primitives":[
				{
					"attributes":{
						"POSITION":4,
						"NORMAL":5,
						"TEXCOORD_0":6
					},
					"indices":7,
					"material":1
				}
			]
		}
	],
	"accessors":[
		{
			"bufferView":0,
			"componentType":5126,
			"count":7424,
			"max":[
				0.029251232743263245,
				1,
				0.029251232743263245
			],
			"min":[
				-0.029251232743263245,
				0.00016485642117913812,
				-0.029251232743263245
			],
			"type":"VEC3"
		},
		{
			"bufferView":1,
			"componentType":5126,
			"count":7424,
			"type":"VEC3"
		},
		{
			"bufferView":2,
			"componentType":5126,
			"count":7424,
			"type":"VEC2"
		},
		{
			"bufferView":3,
			"componentType":5123,
			"count":13056,
			"type":"SCALAR"
		},
		{
			"bufferView":4,
			"componentType":5126,
			"count":1472,
			"max":[
				0.05477238819003105,
				0.27623727917671204,
				0.05477238819003105
			],
			"min":[
				-0.05477238819003105,
				0.019119856879115105,
				-0.05477238819003105
			],
			"type":"VEC3"
		},
		{
			"bufferView":5,
			"componentType":5126,
			"count":1472,
			"type":"VEC3"
		},
		{
			"bufferView":6,
			"componentType":5126,
			"count":1472,
			"type":"VEC2"
		},
		{
			"bufferView":7,
			"componentType":5123,
			"count":8820,
			"type":"SCALAR"
		}
	],
	"bufferViews":[
		{
			"buffer":0,
			"byteLength":89088,
			"byteOffset":0,
			"target":34962
		},
		{
			"buffer":0,
			"byteLength":89088,
			"byteOffset":89088,
			"target":34962
		},
		{
			"buffer":0,
			"byteLength":59392,
			"byteOffset":178176,
			"target":34962
		},
		{
			"buffer":0,
			"byteLength":26112,
			"byteOffset":237568,
			"target":34963
		},
		{
			"buffer":0,
			"byteLength":17664,
			"byteOffset":263680,
			"target":34962
		},
		{
			"buffer":0,
			"byteLength":17664,
			"byteOffset":281344,
			"target":34962
		},
		{
			"buffer":0,
			"byteLength":11776,
			"byteOffset":299008,
			"target":34962
		},
		{
			"buffer":0,
			"byteLength":17640,
			"byteOffset":310784,
			"target":34963
		}
	],
	"buffers":[
		{
			"byteLength":328424,
			"uri":"glass_dropper_2.0.bin"
		}
	]
}
