{
	"asset":{
		"generator":"Khronos glTF Blender I/O v3.6.27",
		"version":"2.0"
	},
	"scene":0,
	"scenes":[
		{
			"name":"Scene",
			"nodes":[
				2
			]
		}
	],
	"nodes":[
		{
			"mesh":0,
			"name":"mark",
			"scale":[
				0.37968406081199646,
				0.15480343997478485,
				0.37968406081199646
			],
			"translation":[
				0,
				2.9186339378356934,
				0
			]
		},
		{
			"mesh":1,
			"name":"vflask10ml wrap_1003",
			"rotation":[
				0.5,
				0.5,
				-0.5,
				0.5
			],
			"scale":[
				0.7231845855712891,
				0.833545446395874,
				0.7170432209968567
			],
			"translation":[
				0.9527004957199097,
				0.41873276233673096,
				0
			]
		},
		{
			"children":[
				0,
				1
			],
			"mesh":2,
			"name":"vflask10ml",
			"scale":[
				1.0424425601959229,
				1.2118144035339355,
				1.0424425601959229
			]
		}
	],
	"materials":[
		{
			"doubleSided":true,
			"name":"Material",
			"pbrMetallicRoughness":{
				"baseColorFactor":[
					0.800000011920929,
					0.800000011920929,
					0.800000011920929,
					1
				],
				"metallicFactor":0,
				"roughnessFactor":0.19021740555763245
			}
		},
		{
			"alphaMode":"BLEND",
			"doubleSided":true,
			"name":"vflask10ml wrap_1003",
			"pbrMetallicRoughness":{
				"metallicFactor":0,
				"roughnessFactor":0.5
			}
		},
		{
			"doubleSided":true,
			"name":"Material.002",
			"pbrMetallicRoughness":{}
		}
	],
	"meshes":[
		{
			"name":"Circle",
			"primitives":[
				{
					"attributes":{
						"POSITION":0,
						"NORMAL":1,
						"TEXCOORD_0":2
					},
					"indices":3,
					"material":0
				}
			]
		},
		{
			"name":"vflask10ml wrap_1003",
			"primitives":[
				{
					"attributes":{
						"POSITION":4,
						"NORMAL":5,
						"TEXCOORD_0":6
					},
					"indices":7,
					"material":1
				}
			]
		},
		{
			"name":"Circle.002",
			"primitives":[
				{
					"attributes":{
						"POSITION":8,
						"NORMAL":9,
						"TEXCOORD_0":10
					},
					"indices":11,
					"material":2
				}
			]
		}
	],
	"accessors":[
		{
			"bufferView":0,
			"componentType":5126,
			"count":128,
			"max":[
				0.8540862798690796,
				0.178314208984375,
				0.8540857434272766
			],
			"min":[
				-0.8540842533111572,
				0.03809165954589844,
				-0.8540846705436707
			],
			"type":"VEC3"
		},
		{
			"bufferView":1,
			"componentType":5126,
			"count":128,
			"type":"VEC3"
		},
		{
			"bufferView":2,
			"componentType":5126,
			"count":128,
			"type":"VEC2"
		},
		{
			"bufferView":3,
			"componentType":5123,
			"count":192,
			"type":"SCALAR"
		},
		{
			"bufferView":4,
			"componentType":5126,
			"count":324,
			"max":[
				1.0639344453811646,
				-0.05762827396392822,
				0.4999999403953552
			],
			"min":[
				-1.0639344453811646,
				-0.8766048550605774,
				-0.4999999403953552
			],
			"type":"VEC3"
		},
		{
			"bufferView":5,
			"componentType":5126,
			"count":324,
			"type":"VEC3"
		},
		{
			"bufferView":6,
			"componentType":5126,
			"count":324,
			"type":"VEC2"
		},
		{
			"bufferView":7,
			"componentType":5123,
			"count":486,
			"type":"SCALAR"
		},
		{
			"bufferView":8,
			"componentType":5126,
			"count":91650,
			"max":[
				0.909051239490509,
				4.984918117523193,
				0.909051239490509
			],
			"min":[
				-0.9090511798858643,
				-0.022500023245811462,
				-0.9090511798858643
			],
			"type":"VEC3"
		},
		{
			"bufferView":9,
			"componentType":5126,
			"count":91650,
			"type":"VEC3"
		},
		{
			"bufferView":10,
			"componentType":5126,
			"count":91650,
			"type":"VEC2"
		},
		{
			"bufferView":11,
			"componentType":5125,
			"count":549888,
			"type":"SCALAR"
		}
	],
	"bufferViews":[
		{
			"buffer":0,
			"byteLength":1536,
			"byteOffset":0,
			"target":34962
		},
		{
			"buffer":0,
			"byteLength":1536,
			"byteOffset":1536,
			"target":34962
		},
		{
			"buffer":0,
			"byteLength":1024,
			"byteOffset":3072,
			"target":34962
		},
		{
			"buffer":0,
			"byteLength":384,
			"byteOffset":4096,
			"target":34963
		},
		{
			"buffer":0,
			"byteLength":3888,
			"byteOffset":4480,
			"target":34962
		},
		{
			"buffer":0,
			"byteLength":3888,
			"byteOffset":8368,
			"target":34962
		},
		{
			"buffer":0,
			"byteLength":2592,
			"byteOffset":12256,
			"target":34962
		},
		{
			"buffer":0,
			"byteLength":972,
			"byteOffset":14848,
			"target":34963
		},
		{
			"buffer":0,
			"byteLength":1099800,
			"byteOffset":15820,
			"target":34962
		},
		{
			"buffer":0,
			"byteLength":1099800,
			"byteOffset":1115620,
			"target":34962
		},
		{
			"buffer":0,
			"byteLength":733200,
			"byteOffset":2215420,
			"target":34962
		},
		{
			"buffer":0,
			"byteLength":2199552,
			"byteOffset":2948620,
			"target":34963
		}
	],
	"buffers":[
		{
			"byteLength":5148172,
			"uri":"vflask10ml_1003.bin"
		}
	]
}
